<?xml version="1.0" encoding="utf-8"?>
<!-- Generator: Adobe Illustrator 24.3.0, SVG Export Plug-In . SVG Version: 6.00 Build 0)  -->
<svg version="1.1" id="katman_1" xmlns="http://www.w3.org/2000/svg" xmlns:xlink="http://www.w3.org/1999/xlink" x="0px" y="0px"
	 viewBox="0 0 1300 975" style="enable-background:new 0 0 1300 975;" xml:space="preserve">
<style type="text/css">
	.st0{fill:#C23328;}
</style>
<path class="st0" d="M820.2,556.5c-4.3,0-7.4,3.8-7.3,9.4c-0.5,4.2,2.5,8,6.6,8.5c0.3,0,0.6,0.1,1,0.1c2.8,0.1,5.4-1.2,6.9-3.5
	c0.5-1,0.7-2,0.7-3.1C828,562.1,825.9,556.5,820.2,556.5z"/>
<path class="st0" d="M1026.1,523.1c-13.8-7.7-30.5-8.4-44.9-1.8c-10.8,6-22.2,10.7-34.1,14c-12.8,2.1-25.9,1.9-38.7-0.4
	c-16.9-2.9-33.5-7.7-49.3-14.5c3.3-14.5,4.9-29.4,4.9-44.3c0-6.4-0.3-12.7-0.9-19c3.6,1.2,7,2.8,10.3,4.8c8,5.6,17.3,9.2,27,10.4
	c28.6,2.4,53.7-18.9,56.1-47.6c2.4-28.6-18.9-53.7-47.6-56.1c-15.8-1.3-31.3,4.9-41.7,16.9c-5.7,6.3-10.5,13-16.3,18.9
	c-8.4-22.3-20.8-42.9-36.4-60.8c8.7-7.3,17.8-13.9,27.5-19.8c11.8-8.7,25.4-14.4,39.8-16.9c9.8-0.2,19.4-2.8,27.9-7.6
	c24.5-15,32.1-47.1,17.1-71.5c-15-24.5-47.1-32.1-71.5-17.1l0,0c-13.5,8.3-22.3,22.5-23.6,38.3c0,12.3-1.6,24.6-4.5,36.5
	c-4.5,12.2-11,23.5-19.3,33.6c-2.5,3.2-5.2,6.3-7.9,9.3c-19.6-18.3-42.6-32.6-67.7-42c0.8-0.4,1.5-0.9,2.3-1.2
	c9.1-3.5,17.3-9.2,23.7-16.6c17.9-22.5,14.2-55.2-8.3-73.1s-55.2-14.2-73.1,8.3c-9.9,12.4-13.3,28.7-9.2,44
	c2.3,9.1,5.6,17.5,7.2,26.5c-4.4-0.3-8.7-0.5-13.2-0.5c-9.1,0-18.2,0.6-27.2,1.9c-4.9-18.7-7.4-37.9-7.4-57.2
	c-1.2-14.6,1-29.2,6.4-42.8c5-8.4,7.8-18,8.2-27.7c0.1-28.7-23.2-52-51.9-52.1c-28.7-0.1-52,23.2-52.1,51.9c0,0.1,0,0.1,0,0.2
	c0,15.9,7.5,30.8,20.3,40.2c10.5,6.5,20.1,14.2,28.7,23c8,10.2,14.3,21.7,18.5,34c4,11.2,7,22.7,9,34.4c-27.4,6.6-53,18.9-75.4,36
	c-3.7-7-6-14.5-6.8-22.4c-0.2-9.8-2.7-19.4-7.5-27.9c-14.9-24.5-46.9-32.3-71.5-17.4c-24.5,14.9-32.3,46.9-17.4,71.5
	c8.2,13.6,22.4,22.4,38.2,23.8c10.9,0.3,21.8,1.5,32.5,3.5c-16.4,19.6-28.9,42.1-36.9,66.3c-24.1-3.6-47.4-11.2-69-22.5
	c-13.5-5.6-25.5-14.3-35-25.3c-5.2-8.3-12.4-15.1-20.9-20c-25.5-13.3-56.9-3.4-70.1,22.1c-13.3,25.5-3.4,56.9,22.1,70.1
	c0.1,0,0.2,0.1,0.2,0.1c14.1,7.3,30.8,7.5,45,0.5c10.6-6.3,21.9-11.3,33.6-15c12.8-2.4,25.9-2.7,38.7-0.8c16.9,2.3,33.5,6.7,49.4,13
	c-4.6,22.3-5.4,45.2-2.4,67.7c-8.2,0.2-16.4-1.3-24.1-4.3c-8.8-4.4-18.5-6.5-28.2-6.2c-28.7,2-50.3,26.8-48.3,55.4
	c2,28.7,26.8,50.3,55.4,48.3l0,0c15.8-1,30.2-9.6,38.7-23c5.2-9.2,11-18.1,17.4-26.5c8.6,23.1,21.3,44.3,37.5,62.8
	c-8,6.7-16.5,12.9-25.3,18.4c-11.7,8.8-25.2,14.7-39.6,17.3c-9.8,0.3-19.3,3-27.8,7.9c-24.3,15.3-31.6,47.4-16.3,71.7
	c15.3,24.3,47.4,31.6,71.7,16.3l0,0c13.4-8.4,22.1-22.7,23.2-38.5c-0.1-12.3,1.3-24.6,4.2-36.6c4.4-12.2,10.8-23.7,19-33.8
	c1.9-2.5,4-4.9,6-7.3c24.7,22.8,54.6,39.1,87.2,47.4c-4.2,20.3-11.3,39.9-21,58.3c-5.7,13.5-14.4,25.4-25.6,34.9
	c-8.3,5.2-15.2,12.3-20.1,20.8c-13.4,25.4-3.7,56.9,21.7,70.3c25.4,13.4,56.9,3.7,70.3-21.7c0-0.1,0.1-0.1,0.1-0.2
	c7.4-14,7.7-30.7,0.7-45c-6.3-10.6-11.2-21.9-14.8-33.7c-2.4-12.8-2.6-25.9-0.6-38.7c2-13.9,5.4-27.5,10.1-40.7
	c26.4,3.8,53.4,2.4,79.2-4.2c1.3,8.3,0.9,16.7-1.2,24.8c-3.2,9.2-4.2,19.1-2.7,28.8c5.5,28.2,32.9,46.5,61.1,41
	c28.2-5.5,46.5-32.9,41-61.1c-3-15.6-13.3-28.8-27.6-35.5c-9.9-4-19.4-8.7-28.6-14c16.1-8.3,31.1-18.6,44.4-30.8
	c6.7,8.8,12.7,18.1,18,27.8c8.1,12.2,13.3,26,15.1,40.5c-0.3,9.8,1.9,19.5,6.3,28.2c13.8,25.2,45.5,34.3,70.6,20.5
	c25.2-13.8,34.3-45.5,20.5-70.6c0,0,0-0.1-0.1-0.1c-7.6-13.9-21.4-23.3-37.1-25.4c-12.3-0.6-24.5-2.7-36.3-6.2
	c-12-5.1-23-12.1-32.6-20.8c-3.3-2.9-6.4-5.9-9.5-9c17.5-19.7,31-42.7,39.7-67.6c24,4.3,47,12.5,68.3,24.5c13.3,6,25,15,34.3,26.4
	c5,8.4,11.9,15.5,20.3,20.6c25.1,13.9,56.8,4.9,70.7-20.2C1060.3,568.7,1051.2,537.1,1026.1,523.1L1026.1,523.1z M667.8,609.8
	c-80.4,0-139.3-53.9-139.3-130.7c0-76.8,58.9-130.7,139.3-130.7c43.2-2.3,84.9,16.3,112.1,50l-53.2,47.5
	c-12.4-18-32.8-28.9-54.6-29.3c-31.4-1-57.8,23.6-58.8,55.1c-0.1,2.5,0,4.9,0.2,7.4c-3.1,31.3,19.8,59.2,51.2,62.3
	c2.5,0.2,4.9,0.3,7.4,0.2c21.9-0.3,42.2-11.2,54.6-29.3l53.2,47.5C752.7,593.5,711,612,667.8,609.8z M758.7,481.3v8.3h-21.6v-8.3
	L758.7,481.3z M792.8,507.2h-12.1v-42.5h-0.2l-10.2,4.9l-2.1-9.4l14.2-6.6h10.4L792.8,507.2z M840.6,500.4c-5.7,4.8-13,7.5-20.5,7.5
	c-1.9,0.1-3.8,0.1-5.7,0v-9.8c1.8,0.2,3.6,0.2,5.4,0c3.7-0.2,7.4-1.3,10.6-3.3c3.4-2.3,5.8-5.9,6.8-9.9l-0.2-0.1
	c-2.9,2.7-6.8,4.1-10.7,3.9c-8.9,0.3-16.4-6.6-16.7-15.5c0-0.4,0-0.8,0-1.2c0.1-10.8,8.9-19.4,19.7-19.3c0.2,0,0.4,0,0.5,0
	c11.3,0,20.4,9.1,20.5,20.4c0,0.9-0.1,1.8-0.2,2.7C850.5,484.9,847.1,493.9,840.6,500.4L840.6,500.4z"/>
<circle class="st0" cx="829.5" cy="470.7" r="6.4"/>
</svg>
